<svg width="18" height="18" viewBox="0 0 18 18" fill="none" xmlns="http://www.w3.org/2000/svg">
<g clip-path="url(#clip0_658_3773)">
<path d="M9 0C13.9706 0 18 4.02944 18 9C18 13.9706 13.9706 18 9 18C4.02944 18 0 13.9706 0 9C0 4.02944 4.02944 0 9 0ZM6.71875 5.29199C6.32828 4.90157 5.69521 4.90165 5.30469 5.29199C4.91422 5.6825 4.91423 6.31554 5.30469 6.70605L7.58594 8.9873L5.29297 11.2812C4.90249 11.6718 4.90248 12.3048 5.29297 12.6953C5.68348 13.0858 6.31652 13.0858 6.70703 12.6953L9 10.4014L11.2939 12.6953L11.3691 12.7646C11.7619 13.0849 12.3419 13.0614 12.708 12.6953C13.0739 12.3292 13.0966 11.7501 12.7764 11.3574L12.708 11.2812L10.4141 8.9873L12.6963 6.70605L12.7646 6.63086C13.0849 6.23811 13.0623 5.65808 12.6963 5.29199C12.3302 4.92594 11.7502 4.90245 11.3574 5.22266L11.2822 5.29199L9 7.57324L6.71875 5.29199Z" fill="#B6AEC6"/>
</g>
<defs>
<clipPath id="clip0_658_3773">
<rect width="18" height="18" fill="white"/>
</clipPath>
</defs>
</svg>
