<svg width="20" height="20" viewBox="0 0 20 20" fill="none" xmlns="http://www.w3.org/2000/svg">
<g clip-path="url(#clip0_6238_2620)">
<path d="M16.667 1.66797H6.66699C5.75033 1.66797 5.00033 2.41797 5.00033 3.33464V13.3346C5.00033 14.2513 5.75033 15.0013 6.66699 15.0013H16.667C17.5837 15.0013 18.3337 14.2513 18.3337 13.3346V3.33464C18.3337 2.41797 17.5837 1.66797 16.667 1.66797ZM9.58366 7.91797C9.58366 8.60964 9.02533 9.16797 8.33366 9.16797H7.50033V10.8346H6.25033V5.83464H8.33366C9.02533 5.83464 9.58366 6.39297 9.58366 7.08464V7.91797ZM13.7503 9.58464C13.7503 10.2763 13.192 10.8346 12.5003 10.8346H10.417V5.83464H12.5003C13.192 5.83464 13.7503 6.39297 13.7503 7.08464V9.58464ZM17.0837 7.08464H15.8337V7.91797H17.0837V9.16797H15.8337V10.8346H14.5837V5.83464H17.0837V7.08464ZM7.50033 7.91797H8.33366V7.08464H7.50033V7.91797ZM3.33366 5.0013H1.66699V16.668C1.66699 17.5846 2.41699 18.3346 3.33366 18.3346H15.0003V16.668H3.33366V5.0013ZM11.667 9.58464H12.5003V7.08464H11.667V9.58464Z" fill="#3E3052"/>
</g>
<defs>
<clipPath id="clip0_6238_2620">
<rect width="20" height="20" fill="white"/>
</clipPath>
</defs>
</svg>
